<svg xmlns="http://www.w3.org/2000/svg" xmlns:xlink="http://www.w3.org/1999/xlink" width="1024" zoomAndPan="magnify" viewBox="0 0 768 767.999994" height="1024" preserveAspectRatio="xMidYMid meet" version="1.0"><defs><clipPath id="id1"><path d="M 614.398438 768 L 153.601562 768 C 68.8125 768 0 699.1875 0 614.398438 L 0 153.601562 C 0 68.8125 68.8125 0 153.601562 0 L 614.398438 0 C 699.1875 0 768 68.8125 768 153.601562 L 768 614.398438 C 768 699.1875 699.1875 768 614.398438 768 Z M 614.398438 768 " clip-rule="nonzero"/></clipPath><clipPath id="id2"><path d="M 159.050781 223 L 544 223 L 544 609 L 159.050781 609 Z M 159.050781 223 " clip-rule="nonzero"/></clipPath><clipPath id="id3"><path d="M 400 159.050781 L 609.050781 159.050781 L 609.050781 368 L 400 368 Z M 400 159.050781 " clip-rule="nonzero"/></clipPath></defs><g clip-path="url(#id1)"><rect x="-76.8" width="921.6" fill="#1e55ec" y="-76.799999" height="921.599993" fill-opacity="1"/></g><path fill="#1e55ec" d="M 614.398438 2.304688 C 697.804688 2.304688 765.695312 70.195312 765.695312 153.601562 L 765.695312 614.398438 C 765.695312 697.804688 697.804688 765.695312 614.398438 765.695312 L 153.601562 765.695312 C 70.195312 765.695312 2.304688 697.804688 2.304688 614.398438 L 2.304688 153.601562 C 2.304688 70.195312 70.195312 2.304688 153.601562 2.304688 L 614.398438 2.304688 M 614.398438 0 L 153.601562 0 C 68.8125 0 0 68.8125 0 153.601562 L 0 614.398438 C 0 699.1875 68.8125 768 153.601562 768 L 614.398438 768 C 699.1875 768 768 699.1875 768 614.398438 L 768 153.601562 C 768 68.8125 699.1875 0 614.398438 0 Z M 614.398438 0 " fill-opacity="1" fill-rule="nonzero"/><g clip-path="url(#id2)"><path fill="#ffffff" d="M 527.625 400.121094 L 367.445312 400.121094 L 367.445312 239.941406 C 367.445312 239.414062 367.417969 238.890625 367.367188 238.367188 C 367.316406 237.84375 367.238281 237.320312 367.136719 236.804688 C 367.035156 236.289062 366.90625 235.78125 366.753906 235.277344 C 366.601562 234.773438 366.421875 234.277344 366.222656 233.789062 C 366.019531 233.304688 365.796875 232.828125 365.546875 232.363281 C 365.300781 231.902344 365.027344 231.449219 364.734375 231.011719 C 364.445312 230.574219 364.128906 230.152344 363.796875 229.746094 C 363.460938 229.339844 363.109375 228.949219 362.738281 228.578125 C 362.367188 228.203125 361.976562 227.851562 361.570312 227.519531 C 361.160156 227.183594 360.738281 226.871094 360.300781 226.578125 C 359.863281 226.285156 359.414062 226.015625 358.949219 225.765625 C 358.484375 225.519531 358.011719 225.292969 357.523438 225.09375 C 357.039062 224.890625 356.542969 224.714844 356.039062 224.5625 C 355.535156 224.410156 355.023438 224.28125 354.507812 224.179688 C 353.992188 224.074219 353.472656 224 352.949219 223.945312 C 352.425781 223.894531 351.898438 223.871094 351.375 223.871094 C 348.226562 223.871094 345.082031 223.945312 341.9375 224.101562 C 338.792969 224.253906 335.65625 224.488281 332.523438 224.796875 C 329.390625 225.105469 326.265625 225.488281 323.152344 225.949219 C 320.039062 226.414062 316.941406 226.949219 313.851562 227.566406 C 310.765625 228.179688 307.695312 228.867188 304.644531 229.632812 C 301.589844 230.398438 298.558594 231.238281 295.546875 232.152344 C 292.53125 233.066406 289.546875 234.050781 286.582031 235.113281 C 283.617188 236.171875 280.683594 237.304688 277.773438 238.507812 C 274.867188 239.714844 271.988281 240.988281 269.144531 242.335938 C 266.300781 243.679688 263.488281 245.09375 260.714844 246.578125 C 257.9375 248.0625 255.199219 249.613281 252.5 251.230469 C 249.800781 252.851562 247.140625 254.53125 244.523438 256.28125 C 241.90625 258.03125 239.335938 259.84375 236.808594 261.71875 C 234.277344 263.59375 231.796875 265.527344 229.363281 267.523438 C 226.933594 269.519531 224.550781 271.578125 222.21875 273.691406 C 219.886719 275.804688 217.605469 277.972656 215.378906 280.199219 C 213.15625 282.425781 210.984375 284.703125 208.871094 287.035156 C 206.757812 289.367188 204.703125 291.75 202.707031 294.183594 C 200.710938 296.617188 198.773438 299.097656 196.898438 301.625 C 195.023438 304.152344 193.210938 306.726562 191.464844 309.34375 C 189.714844 311.960938 188.03125 314.617188 186.414062 317.320312 C 184.792969 320.019531 183.242188 322.757812 181.761719 325.53125 C 180.277344 328.308594 178.863281 331.117188 177.515625 333.964844 C 176.171875 336.808594 174.894531 339.683594 173.691406 342.59375 C 172.484375 345.5 171.355469 348.4375 170.292969 351.402344 C 169.234375 354.363281 168.246094 357.351562 167.332031 360.363281 C 166.417969 363.375 165.578125 366.410156 164.8125 369.460938 C 164.050781 372.515625 163.359375 375.585938 162.746094 378.671875 C 162.132812 381.757812 161.59375 384.859375 161.132812 387.972656 C 160.671875 391.085938 160.285156 394.207031 159.976562 397.339844 C 159.667969 400.472656 159.4375 403.613281 159.28125 406.753906 C 159.128906 409.898438 159.050781 413.042969 159.050781 416.191406 C 159.050781 419.339844 159.128906 422.484375 159.28125 425.628906 C 159.4375 428.773438 159.667969 431.910156 159.976562 435.042969 C 160.285156 438.175781 160.671875 441.296875 161.132812 444.410156 C 161.59375 447.523438 162.132812 450.625 162.746094 453.710938 C 163.359375 456.800781 164.050781 459.871094 164.8125 462.921875 C 165.578125 465.976562 166.417969 469.007812 167.332031 472.019531 C 168.246094 475.03125 169.234375 478.019531 170.292969 480.984375 C 171.355469 483.945312 172.484375 486.882812 173.691406 489.789062 C 174.894531 492.699219 176.171875 495.574219 177.515625 498.421875 C 178.863281 501.265625 180.277344 504.078125 181.761719 506.851562 C 183.242188 509.628906 184.792969 512.367188 186.414062 515.066406 C 188.03125 517.765625 189.714844 520.421875 191.464844 523.039062 C 193.210938 525.65625 195.023438 528.230469 196.898438 530.757812 C 198.773438 533.285156 200.710938 535.765625 202.707031 538.199219 C 204.703125 540.632812 206.757812 543.015625 208.871094 545.347656 C 210.984375 547.679688 213.15625 549.957031 215.378906 552.183594 C 217.605469 554.410156 219.886719 556.578125 222.21875 558.695312 C 224.550781 560.808594 226.933594 562.863281 229.363281 564.859375 C 231.796875 566.855469 234.277344 568.792969 236.808594 570.667969 C 239.335938 572.542969 241.90625 574.355469 244.523438 576.101562 C 247.140625 577.851562 249.800781 579.535156 252.5 581.152344 C 255.199219 582.769531 257.9375 584.320312 260.714844 585.804688 C 263.488281 587.289062 266.300781 588.703125 269.144531 590.050781 C 271.988281 591.394531 274.867188 592.671875 277.773438 593.875 C 280.683594 595.078125 283.617188 596.210938 286.582031 597.273438 C 289.546875 598.332031 292.53125 599.320312 295.546875 600.234375 C 298.558594 601.148438 301.589844 601.984375 304.644531 602.75 C 307.695312 603.515625 310.765625 604.203125 313.851562 604.820312 C 316.941406 605.433594 320.039062 605.972656 323.152344 606.433594 C 326.265625 606.894531 329.390625 607.28125 332.523438 607.589844 C 335.65625 607.898438 338.792969 608.128906 341.9375 608.28125 C 345.082031 608.4375 348.226562 608.515625 351.375 608.515625 C 354.519531 608.515625 357.667969 608.4375 360.808594 608.28125 C 363.953125 608.128906 367.089844 607.898438 370.222656 607.589844 C 373.355469 607.28125 376.480469 606.894531 379.59375 606.433594 C 382.707031 605.972656 385.804688 605.433594 388.894531 604.820312 C 391.980469 604.203125 395.050781 603.515625 398.105469 602.75 C 401.15625 601.984375 404.191406 601.148438 407.203125 600.234375 C 410.214844 599.320312 413.203125 598.332031 416.164062 597.273438 C 419.128906 596.210938 422.0625 595.078125 424.972656 593.875 C 427.878906 592.671875 430.757812 591.394531 433.601562 590.050781 C 436.445312 588.703125 439.257812 587.289062 442.035156 585.804688 C 444.808594 584.320312 447.546875 582.769531 450.246094 581.152344 C 452.945312 579.535156 455.605469 577.851562 458.222656 576.101562 C 460.839844 574.355469 463.410156 572.542969 465.941406 570.667969 C 468.46875 568.792969 470.949219 566.855469 473.382812 564.859375 C 475.8125 562.863281 478.195312 560.808594 480.527344 558.695312 C 482.859375 556.578125 485.140625 554.410156 487.367188 552.183594 C 489.589844 549.957031 491.761719 547.679688 493.875 545.347656 C 495.988281 543.015625 498.042969 540.632812 500.039062 538.199219 C 502.039062 535.765625 503.972656 533.285156 505.847656 530.757812 C 507.722656 528.230469 509.535156 525.65625 511.285156 523.039062 C 513.03125 520.421875 514.714844 517.765625 516.332031 515.066406 C 517.953125 512.367188 519.503906 509.628906 520.988281 506.851562 C 522.46875 504.078125 523.886719 501.265625 525.230469 498.421875 C 526.578125 495.574219 527.851562 492.699219 529.054688 489.789062 C 530.261719 486.882812 531.394531 483.945312 532.453125 480.984375 C 533.511719 478.019531 534.5 475.03125 535.414062 472.019531 C 536.328125 469.007812 537.167969 465.976562 537.933594 462.921875 C 538.695312 459.871094 539.386719 456.800781 540 453.710938 C 540.613281 450.625 541.152344 447.523438 541.613281 444.410156 C 542.074219 441.296875 542.460938 438.175781 542.769531 435.042969 C 543.078125 431.910156 543.308594 428.773438 543.464844 425.628906 C 543.617188 422.484375 543.695312 419.339844 543.695312 416.191406 C 543.695312 415.664062 543.667969 415.140625 543.617188 414.617188 C 543.566406 414.09375 543.488281 413.574219 543.386719 413.054688 C 543.285156 412.539062 543.15625 412.03125 543.003906 411.527344 C 542.851562 411.023438 542.671875 410.527344 542.472656 410.042969 C 542.269531 409.554688 542.046875 409.082031 541.796875 408.617188 C 541.550781 408.152344 541.28125 407.699219 540.988281 407.261719 C 540.695312 406.824219 540.382812 406.402344 540.046875 405.996094 C 539.714844 405.589844 539.359375 405.199219 538.988281 404.828125 C 538.617188 404.457031 538.226562 404.101562 537.820312 403.769531 C 537.414062 403.433594 536.992188 403.121094 536.554688 402.828125 C 536.117188 402.535156 535.664062 402.265625 535.199219 402.019531 C 534.734375 401.769531 534.261719 401.546875 533.773438 401.34375 C 533.289062 401.140625 532.792969 400.964844 532.289062 400.8125 C 531.785156 400.660156 531.277344 400.53125 530.757812 400.429688 C 530.242188 400.328125 529.722656 400.25 529.199219 400.199219 C 528.675781 400.144531 528.152344 400.121094 527.625 400.121094 Z M 335.300781 414.050781 L 297.265625 566.726562 C 295.148438 565.96875 293.042969 565.167969 290.960938 564.320312 C 288.875 563.472656 286.808594 562.578125 284.757812 561.644531 C 282.710938 560.710938 280.683594 559.734375 278.679688 558.710938 C 276.671875 557.691406 274.6875 556.628906 272.726562 555.527344 C 270.765625 554.421875 268.824219 553.277344 266.914062 552.09375 C 265 550.90625 263.113281 549.679688 261.25 548.417969 C 259.386719 547.152344 257.554688 545.847656 255.746094 544.503906 C 253.941406 543.164062 252.160156 541.78125 250.414062 540.363281 C 248.664062 538.949219 246.945312 537.492188 245.257812 536.003906 C 243.570312 534.515625 241.917969 532.988281 240.292969 531.429688 C 238.671875 529.871094 237.082031 528.277344 235.523438 526.652344 C 233.96875 525.023438 232.449219 523.363281 230.960938 521.675781 C 229.476562 519.984375 228.027344 518.261719 226.613281 516.511719 C 225.199219 514.757812 223.824219 512.976562 222.484375 511.167969 C 221.144531 509.359375 219.847656 507.519531 218.585938 505.65625 C 217.324219 503.792969 216.101562 501.902344 214.921875 499.984375 C 213.742188 498.066406 212.601562 496.128906 211.5 494.164062 C 210.402344 492.199219 209.34375 490.214844 208.328125 488.203125 C 207.3125 486.195312 206.339844 484.167969 205.410156 482.117188 C 204.480469 480.066406 203.59375 477.996094 202.75 475.910156 C 201.90625 473.824219 201.109375 471.71875 200.355469 469.597656 C 199.601562 467.476562 198.890625 465.339844 198.226562 463.191406 C 197.5625 461.039062 196.945312 458.875 196.371094 456.699219 C 195.796875 454.523438 195.273438 452.335938 194.789062 450.136719 C 194.308594 447.9375 193.875 445.726562 193.488281 443.511719 C 193.101562 441.292969 192.761719 439.070312 192.464844 436.835938 C 192.171875 434.605469 191.925781 432.367188 191.726562 430.125 C 191.527344 427.882812 191.375 425.640625 191.269531 423.390625 C 191.164062 421.140625 191.105469 418.890625 191.097656 416.640625 C 191.085938 414.390625 191.125 412.140625 191.210938 409.890625 C 191.292969 407.640625 191.425781 405.394531 191.605469 403.152344 C 191.785156 400.90625 192.011719 398.667969 192.285156 396.433594 C 192.5625 394.199219 192.882812 391.972656 193.25 389.75 C 193.617188 387.53125 194.03125 385.316406 194.492188 383.113281 C 194.953125 380.910156 195.460938 378.71875 196.015625 376.535156 C 196.570312 374.355469 197.167969 372.1875 197.8125 370.027344 C 198.457031 367.871094 199.148438 365.730469 199.882812 363.601562 C 200.617188 361.476562 201.398438 359.363281 202.222656 357.269531 C 203.046875 355.175781 203.914062 353.097656 204.828125 351.039062 C 205.738281 348.984375 206.695312 346.945312 207.691406 344.925781 C 208.691406 342.910156 209.730469 340.914062 210.8125 338.941406 C 211.894531 336.964844 213.015625 335.015625 214.179688 333.089844 C 215.34375 331.164062 216.550781 329.261719 217.792969 327.386719 C 219.039062 325.507812 220.320312 323.660156 221.644531 321.839844 C 222.964844 320.015625 224.324219 318.222656 225.722656 316.460938 C 227.121094 314.695312 228.554688 312.960938 230.027344 311.257812 C 231.496094 309.554688 233.003906 307.882812 234.546875 306.242188 C 236.085938 304.601562 237.664062 302.992188 239.269531 301.417969 C 240.878906 299.84375 242.523438 298.304688 244.195312 296.800781 C 245.871094 295.296875 247.574219 293.828125 249.3125 292.394531 C 251.046875 290.960938 252.8125 289.566406 254.609375 288.207031 C 256.402344 286.847656 258.226562 285.527344 260.074219 284.246094 C 261.925781 282.964844 263.804688 281.722656 265.707031 280.519531 C 267.609375 279.320312 269.535156 278.15625 271.488281 277.035156 C 273.441406 275.914062 275.414062 274.835938 277.414062 273.796875 C 279.410156 272.757812 281.429688 271.761719 283.46875 270.808594 C 285.507812 269.855469 287.566406 268.949219 289.644531 268.082031 C 291.71875 267.214844 293.816406 266.394531 295.929688 265.617188 C 298.039062 264.839844 300.167969 264.105469 302.3125 263.417969 C 304.453125 262.730469 306.613281 262.085938 308.78125 261.488281 C 310.953125 260.890625 313.132812 260.339844 315.328125 259.835938 C 317.519531 259.332031 319.726562 258.871094 321.9375 258.460938 C 324.152344 258.046875 326.371094 257.683594 328.597656 257.363281 C 330.828125 257.042969 333.0625 256.773438 335.300781 256.546875 Z M 335.300781 414.050781 " fill-opacity="1" fill-rule="nonzero"/></g><g clip-path="url(#id3)"><path fill="#ffffff" d="M 416.730469 159.582031 C 416.203125 159.582031 415.679688 159.609375 415.15625 159.660156 C 414.632812 159.710938 414.113281 159.789062 413.59375 159.890625 C 413.078125 159.996094 412.570312 160.121094 412.066406 160.277344 C 411.5625 160.429688 411.066406 160.605469 410.582031 160.808594 C 410.09375 161.007812 409.617188 161.234375 409.15625 161.480469 C 408.691406 161.730469 408.238281 162 407.800781 162.292969 C 407.363281 162.585938 406.941406 162.898438 406.535156 163.230469 C 406.128906 163.566406 405.738281 163.917969 405.367188 164.289062 C 404.996094 164.664062 404.640625 165.050781 404.308594 165.460938 C 403.972656 165.867188 403.660156 166.289062 403.367188 166.726562 C 403.074219 167.164062 402.804688 167.613281 402.558594 168.078125 C 402.308594 168.542969 402.085938 169.019531 401.882812 169.503906 C 401.679688 169.992188 401.503906 170.484375 401.351562 170.988281 C 401.199219 171.492188 401.070312 172.003906 400.96875 172.519531 C 400.867188 173.035156 400.789062 173.554688 400.738281 174.078125 C 400.683594 174.605469 400.660156 175.128906 400.660156 175.65625 L 400.660156 351.90625 C 400.660156 352.433594 400.683594 352.957031 400.738281 353.480469 C 400.789062 354.003906 400.867188 354.523438 400.96875 355.042969 C 401.070312 355.558594 401.199219 356.066406 401.351562 356.570312 C 401.503906 357.074219 401.679688 357.570312 401.882812 358.054688 C 402.082031 358.542969 402.308594 359.019531 402.558594 359.480469 C 402.804688 359.945312 403.074219 360.398438 403.367188 360.835938 C 403.660156 361.273438 403.972656 361.695312 404.308594 362.101562 C 404.640625 362.507812 404.996094 362.898438 405.367188 363.269531 C 405.738281 363.640625 406.128906 363.996094 406.535156 364.328125 C 406.941406 364.664062 407.363281 364.976562 407.800781 365.269531 C 408.238281 365.5625 408.691406 365.832031 409.15625 366.078125 C 409.617188 366.328125 410.09375 366.550781 410.582031 366.753906 C 411.066406 366.957031 411.5625 367.132812 412.066406 367.285156 C 412.570312 367.4375 413.078125 367.566406 413.59375 367.667969 C 414.113281 367.769531 414.632812 367.847656 415.15625 367.898438 C 415.679688 367.953125 416.203125 367.976562 416.730469 367.976562 L 592.980469 367.976562 C 593.507812 367.976562 594.03125 367.953125 594.558594 367.898438 C 595.082031 367.847656 595.601562 367.769531 596.117188 367.667969 C 596.632812 367.566406 597.144531 367.4375 597.648438 367.285156 C 598.152344 367.132812 598.644531 366.957031 599.132812 366.753906 C 599.617188 366.550781 600.09375 366.328125 600.558594 366.078125 C 601.023438 365.832031 601.472656 365.5625 601.910156 365.269531 C 602.347656 364.976562 602.769531 364.664062 603.175781 364.328125 C 603.585938 363.996094 603.972656 363.640625 604.347656 363.269531 C 604.71875 362.898438 605.070312 362.507812 605.40625 362.101562 C 605.738281 361.695312 606.050781 361.273438 606.34375 360.835938 C 606.636719 360.398438 606.90625 359.945312 607.15625 359.480469 C 607.402344 359.019531 607.628906 358.542969 607.828125 358.054688 C 608.03125 357.570312 608.207031 357.074219 608.359375 356.570312 C 608.515625 356.066406 608.640625 355.558594 608.746094 355.042969 C 608.847656 354.523438 608.925781 354.003906 608.976562 353.480469 C 609.027344 352.957031 609.054688 352.433594 609.054688 351.90625 C 609.054688 348.757812 608.976562 345.613281 608.820312 342.46875 C 608.667969 339.324219 608.4375 336.1875 608.128906 333.054688 C 607.820312 329.921875 607.433594 326.800781 606.972656 323.6875 C 606.507812 320.574219 605.972656 317.472656 605.359375 314.386719 C 604.742188 311.296875 604.054688 308.226562 603.289062 305.175781 C 602.523438 302.121094 601.683594 299.089844 600.773438 296.078125 C 599.859375 293.066406 598.871094 290.078125 597.8125 287.113281 C 596.75 284.152344 595.617188 281.214844 594.414062 278.308594 C 593.207031 275.398438 591.933594 272.523438 590.589844 269.675781 C 589.242188 266.832031 587.828125 264.023438 586.34375 261.246094 C 584.859375 258.46875 583.308594 255.730469 581.691406 253.03125 C 580.074219 250.332031 578.390625 247.675781 576.640625 245.058594 C 574.890625 242.441406 573.082031 239.867188 571.207031 237.339844 C 569.332031 234.8125 567.394531 232.332031 565.398438 229.898438 C 563.402344 227.464844 561.347656 225.082031 559.230469 222.75 C 557.117188 220.417969 554.949219 218.140625 552.722656 215.914062 C 550.496094 213.6875 548.21875 211.519531 545.886719 209.40625 C 543.554688 207.289062 541.171875 205.234375 538.738281 203.238281 C 536.304688 201.242188 533.824219 199.304688 531.296875 197.429688 C 528.769531 195.554688 526.195312 193.746094 523.578125 191.996094 C 520.960938 190.246094 518.304688 188.5625 515.605469 186.945312 C 512.90625 185.328125 510.167969 183.777344 507.390625 182.292969 C 504.613281 180.808594 501.804688 179.394531 498.960938 178.046875 C 496.113281 176.703125 493.238281 175.425781 490.328125 174.222656 C 487.421875 173.019531 484.484375 171.886719 481.523438 170.824219 C 478.558594 169.765625 475.570312 168.777344 472.558594 167.863281 C 469.546875 166.949219 466.515625 166.113281 463.460938 165.347656 C 460.40625 164.582031 457.339844 163.894531 454.25 163.277344 C 451.164062 162.664062 448.0625 162.125 444.949219 161.664062 C 441.835938 161.203125 438.714844 160.816406 435.582031 160.507812 C 432.449219 160.199219 429.3125 159.96875 426.167969 159.816406 C 423.023438 159.660156 419.878906 159.582031 416.730469 159.582031 Z M 416.730469 159.582031 " fill-opacity="1" fill-rule="nonzero"/></g></svg>