<svg width="1024" height="1024" viewBox="0 0 1024 1024" fill="none" xmlns="http://www.w3.org/2000/svg">
<mask id="mask0_1_2" style="mask-type:luminance" maskUnits="userSpaceOnUse" x="62" y="189" width="770" height="773">
<path d="M62 189.78H831.182V961.061H62V189.78Z" fill="white"/>
</mask>
<g mask="url(#mask0_1_2)">
<path d="M798.463 543.692H478.401V223.631C478.401 222.577 478.347 221.531 478.245 220.485C478.144 219.439 477.988 218.393 477.785 217.363C477.582 216.333 477.324 215.318 477.02 214.311C476.715 213.304 476.356 212.313 475.958 211.338C475.552 210.37 475.108 209.417 474.608 208.489C474.116 207.568 473.57 206.662 472.984 205.788C472.407 204.914 471.775 204.071 471.111 203.259C470.44 202.447 469.738 201.667 468.996 200.925C468.255 200.176 467.474 199.474 466.662 198.81C465.843 198.139 465 197.514 464.126 196.929C463.251 196.344 462.354 195.805 461.425 195.306C460.496 194.814 459.552 194.361 458.576 193.963C457.608 193.557 456.617 193.206 455.61 192.902C454.603 192.597 453.581 192.34 452.55 192.137C451.52 191.926 450.482 191.778 449.436 191.668C448.39 191.567 447.336 191.52 446.291 191.52C440 191.52 433.716 191.668 427.433 191.981C421.15 192.285 414.882 192.753 408.623 193.37C402.363 193.986 396.119 194.751 389.898 195.672C383.677 196.601 377.487 197.671 371.314 198.904C365.147 200.129 359.012 201.503 352.917 203.033C346.813 204.563 340.756 206.241 334.738 208.067C328.713 209.894 322.749 211.86 316.825 213.983C310.901 216.099 305.039 218.362 299.224 220.766C293.417 223.178 287.665 225.723 281.983 228.415C276.3 231.1 270.681 233.926 265.139 236.892C259.589 239.858 254.118 242.956 248.725 246.188C243.331 249.427 238.016 252.783 232.786 256.28C227.557 259.777 222.421 263.398 217.371 267.145C212.313 270.891 207.357 274.755 202.494 278.743C197.639 282.732 192.878 286.845 188.218 291.068C183.559 295.291 179 299.622 174.551 304.071C170.11 308.52 165.771 313.071 161.548 317.731C157.325 322.39 153.22 327.152 149.231 332.014C145.243 336.877 141.371 341.833 137.625 346.883C133.878 351.933 130.257 357.077 126.768 362.306C123.271 367.536 119.907 372.843 116.676 378.245C113.436 383.638 110.338 389.109 107.38 394.651C104.414 400.201 101.588 405.813 98.8953 411.503C96.2103 417.185 93.658 422.93 91.254 428.744C88.8422 434.552 86.5865 440.421 84.4635 446.345C82.3482 452.262 80.3735 458.233 78.5471 464.25C76.7207 470.268 75.0425 476.333 73.5127 482.429C71.9907 488.533 70.6092 494.667 69.3837 500.834C68.1583 507 67.0812 513.197 66.1602 519.418C65.2392 525.639 64.4665 531.875 63.8498 538.135C63.2332 544.395 62.7727 550.67 62.4605 556.945C62.1561 563.229 62 569.512 62 575.803C62 582.094 62.1561 588.377 62.4605 594.66C62.7727 600.943 63.2332 607.211 63.8498 613.471C64.4665 619.731 65.2392 625.967 66.1602 632.188C67.0812 638.409 68.1583 644.606 69.3837 650.772C70.6092 656.946 71.9907 663.081 73.5127 669.177C75.0425 675.28 76.7207 681.337 78.5471 687.355C80.3735 693.373 82.3482 699.344 84.4635 705.268C86.5865 711.185 88.8422 717.054 91.254 722.861C93.658 728.676 96.2103 734.421 98.8953 740.111C101.588 745.793 104.414 751.413 107.38 756.954C110.338 762.504 113.436 767.975 116.676 773.369C119.907 778.762 123.271 784.07 126.768 789.299C130.257 794.529 133.878 799.672 137.625 804.722C141.371 809.772 145.243 814.729 149.231 819.591C153.22 824.454 157.325 829.215 161.548 833.875C165.771 838.535 170.11 843.085 174.551 847.534C179 851.983 183.559 856.315 188.218 860.545C192.878 864.768 197.639 868.874 202.494 872.862C207.357 876.851 212.313 880.722 217.371 884.469C222.421 888.215 227.557 891.837 232.786 895.326C238.016 898.822 243.331 902.186 248.725 905.418C254.118 908.649 259.589 911.748 265.139 914.714C270.681 917.68 276.3 920.505 281.983 923.198C287.665 925.883 293.417 928.435 299.224 930.839C305.039 933.243 310.901 935.507 316.825 937.63C322.749 939.745 328.713 941.72 334.738 943.546C340.756 945.373 346.813 947.043 352.917 948.573C359.012 950.103 365.147 951.476 371.314 952.71C377.487 953.935 383.677 955.012 389.898 955.933C396.119 956.854 402.363 957.627 408.623 958.244C414.882 958.86 421.15 959.321 427.433 959.625C433.716 959.937 440 960.093 446.291 960.093C452.574 960.093 458.865 959.937 465.14 959.625C471.423 959.321 477.691 958.86 483.951 958.244C490.211 957.627 496.455 956.854 502.676 955.933C508.896 955.012 515.086 953.935 521.26 952.71C527.426 951.476 533.561 950.103 539.665 948.573C545.76 947.043 551.825 945.373 557.843 943.546C563.861 941.72 569.832 939.745 575.748 937.63C581.672 935.507 587.534 933.243 593.349 930.839C599.156 928.435 604.909 925.883 610.591 923.198C616.273 920.505 621.893 917.68 627.442 914.714C632.984 911.748 638.455 908.649 643.849 905.418C649.242 902.186 654.558 898.822 659.787 895.326C665.017 891.837 670.152 888.215 675.21 884.469C680.26 880.722 685.217 876.851 690.079 872.862C694.934 868.874 699.695 864.768 704.355 860.545C709.015 856.315 713.573 851.983 718.022 847.534C722.463 843.085 726.803 838.535 731.025 833.875C735.248 829.215 739.354 824.454 743.342 819.591C747.338 814.729 751.202 809.772 754.948 804.722C758.695 799.672 762.317 794.529 765.813 789.299C769.302 784.07 772.666 778.762 775.898 773.369C779.137 767.975 782.236 762.504 785.202 756.954C788.16 751.413 790.993 745.793 793.678 740.111C796.371 734.421 798.915 728.676 801.319 722.861C803.731 717.054 805.995 711.185 808.11 705.268C810.225 699.344 812.2 693.373 814.026 687.355C815.853 681.337 817.531 675.28 819.061 669.177C820.583 663.081 821.964 656.946 823.19 650.772C824.415 644.606 825.492 638.409 826.413 632.188C827.334 625.967 828.107 619.731 828.724 613.471C829.34 607.211 829.801 600.943 830.113 594.66C830.417 588.377 830.573 582.094 830.573 575.803C830.573 574.749 830.519 573.703 830.417 572.657C830.316 571.611 830.16 570.573 829.957 569.535C829.754 568.505 829.496 567.49 829.192 566.483C828.887 565.476 828.528 564.485 828.13 563.517C827.724 562.542 827.28 561.597 826.78 560.668C826.288 559.74 825.75 558.834 825.164 557.96C824.579 557.086 823.955 556.243 823.283 555.431C822.62 554.619 821.91 553.839 821.168 553.097C820.427 552.356 819.646 551.646 818.834 550.982C818.023 550.311 817.18 549.687 816.305 549.101C815.431 548.516 814.526 547.977 813.597 547.485C812.668 546.986 811.724 546.541 810.748 546.135C809.78 545.729 808.789 545.378 807.782 545.074C806.775 544.769 805.761 544.512 804.722 544.309C803.692 544.106 802.654 543.95 801.608 543.848C800.562 543.739 799.516 543.692 798.463 543.692ZM414.172 571.526L338.173 876.593C333.942 875.079 329.735 873.479 325.575 871.785C321.407 870.091 317.278 868.304 313.18 866.438C309.09 864.573 305.039 862.622 301.035 860.577C297.023 858.54 293.058 856.417 289.14 854.215C285.222 852.007 281.343 849.72 277.526 847.355C273.701 844.982 269.931 842.531 266.208 840.01C262.485 837.481 258.825 834.874 255.211 832.189C251.605 829.512 248.046 826.749 244.557 823.916C241.06 821.09 237.626 818.179 234.254 815.205C230.882 812.231 227.58 809.179 224.333 806.065C221.094 802.951 217.917 799.766 214.803 796.519C211.697 793.264 208.66 789.947 205.687 786.575C202.721 783.196 199.825 779.754 196.999 776.257C194.174 772.752 191.426 769.193 188.749 765.579C186.072 761.965 183.481 758.289 180.96 754.566C178.438 750.843 175.995 747.065 173.638 743.233C171.281 739.4 169.002 735.529 166.801 731.603C164.608 727.677 162.492 723.712 160.463 719.692C158.434 715.68 156.49 711.629 154.632 707.532C152.775 703.434 151.003 699.297 149.317 695.129C147.631 690.961 146.039 686.754 144.533 682.516C143.026 678.278 141.606 674.008 140.279 669.715C138.952 665.415 137.719 661.091 136.571 656.743C135.424 652.396 134.378 648.025 133.41 643.63C132.45 639.236 131.584 634.818 130.811 630.393C130.038 625.959 129.359 621.518 128.766 617.053C128.181 612.597 127.689 608.124 127.291 603.644C126.893 599.164 126.588 594.684 126.378 590.188C126.167 585.692 126.05 581.196 126.034 576.7C126.011 572.205 126.089 567.709 126.26 563.213C126.424 558.717 126.69 554.229 127.049 549.749C127.408 545.261 127.861 540.789 128.407 536.324C128.961 531.859 129.601 527.41 130.335 522.969C131.068 518.536 131.896 514.11 132.817 509.708C133.738 505.306 134.753 500.927 135.861 496.564C136.969 492.209 138.163 487.877 139.451 483.561C140.739 479.252 142.121 474.975 143.588 470.721C145.055 466.475 146.617 462.252 148.263 458.069C149.91 453.885 151.643 449.733 153.47 445.619C155.288 441.514 157.2 437.439 159.191 433.404C161.189 429.377 163.265 425.388 165.427 421.447C167.589 417.497 169.829 413.602 172.155 409.754C174.481 405.906 176.893 402.105 179.375 398.359C181.865 394.604 184.425 390.912 187.071 387.275C189.709 383.63 192.425 380.048 195.22 376.527C198.014 372.999 200.878 369.534 203.821 366.131C206.756 362.728 209.769 359.387 212.852 356.109C215.927 352.831 219.08 349.615 222.288 346.469C225.504 343.324 228.79 340.249 232.131 337.244C235.479 334.239 238.882 331.304 242.355 328.439C245.821 325.575 249.349 322.788 252.939 320.072C256.522 317.356 260.167 314.718 263.859 312.158C267.559 309.598 271.313 307.116 275.114 304.711C278.915 302.315 282.763 299.989 286.666 297.749C290.568 295.509 294.51 293.355 298.506 291.279C302.495 289.202 306.53 287.212 310.604 285.308C314.679 283.403 318.792 281.592 322.945 279.86C327.089 278.127 331.281 276.488 335.503 274.935C339.718 273.381 343.972 271.914 348.257 270.54C352.534 269.166 356.85 267.879 361.182 266.684C365.522 265.49 369.877 264.39 374.264 263.383C378.643 262.376 383.053 261.455 387.47 260.635C391.896 259.808 396.329 259.082 400.778 258.442C405.235 257.802 409.7 257.263 414.172 256.811V571.526Z" fill="#1E55EC"/>
</g>
<mask id="mask1_1_2" style="mask-type:luminance" maskUnits="userSpaceOnUse" x="543" y="62" width="419" height="418">
<path d="M543.45 62H961.163V479.51H543.45V62Z" fill="white"/>
</mask>
<g mask="url(#mask1_1_2)">
<path d="M576.88 63.0614C575.826 63.0614 574.78 63.116 573.734 63.2175C572.689 63.319 571.65 63.4751 570.612 63.678C569.582 63.8888 568.567 64.1385 567.561 64.4507C566.554 64.7551 565.562 65.1064 564.595 65.5122C563.619 65.9103 562.667 66.363 561.746 66.8547C560.817 67.3543 559.911 67.8928 559.037 68.4782C558.163 69.0636 557.32 69.688 556.508 70.3515C555.697 71.0227 554.916 71.7252 554.175 72.4667C553.433 73.216 552.723 73.9887 552.059 74.8083C551.388 75.62 550.764 76.463 550.178 77.3372C549.593 78.2114 549.054 79.109 548.563 80.0378C548.063 80.9666 547.618 81.9188 547.212 82.8867C546.806 83.8623 546.455 84.8458 546.151 85.8527C545.846 86.8596 545.589 87.882 545.386 88.9123C545.183 89.9426 545.027 90.9807 544.925 92.0266C544.816 93.0803 544.769 94.1262 544.769 95.1799V447.352C544.769 448.406 544.816 449.452 544.925 450.497C545.027 451.543 545.183 452.581 545.386 453.62C545.589 454.65 545.846 455.665 546.151 456.671C546.455 457.678 546.806 458.67 547.212 459.637C547.61 460.613 548.063 461.565 548.563 462.486C549.054 463.415 549.593 464.321 550.178 465.195C550.764 466.069 551.388 466.912 552.059 467.724C552.723 468.535 553.433 469.316 554.175 470.057C554.916 470.799 555.697 471.509 556.508 472.173C557.32 472.844 558.163 473.468 559.037 474.054C559.911 474.639 560.817 475.178 561.746 475.669C562.667 476.169 563.619 476.614 564.595 477.02C565.562 477.426 566.554 477.777 567.561 478.081C568.567 478.386 569.582 478.643 570.612 478.846C571.65 479.049 572.689 479.205 573.734 479.307C574.78 479.416 575.826 479.463 576.88 479.463H929.052C930.106 479.463 931.152 479.416 932.205 479.307C933.251 479.205 934.289 479.049 935.32 478.846C936.35 478.643 937.372 478.386 938.379 478.081C939.386 477.777 940.37 477.426 941.345 477.02C942.313 476.614 943.265 476.169 944.194 475.669C945.123 475.178 946.021 474.639 946.895 474.054C947.769 473.468 948.612 472.844 949.424 472.173C950.243 471.509 951.016 470.799 951.765 470.057C952.507 469.316 953.209 468.535 953.88 467.724C954.544 466.912 955.168 466.069 955.754 465.195C956.339 464.321 956.878 463.415 957.377 462.486C957.869 461.565 958.322 460.613 958.72 459.637C959.126 458.67 959.477 457.678 959.781 456.671C960.093 455.665 960.343 454.65 960.554 453.62C960.757 452.581 960.913 451.543 961.014 450.497C961.116 449.452 961.171 448.406 961.171 447.352C961.171 441.061 961.014 434.778 960.702 428.495C960.398 422.211 959.937 415.944 959.321 409.684C958.704 403.424 957.931 397.188 957.01 390.967C956.082 384.746 955.012 378.549 953.787 372.383C952.554 366.209 951.18 360.074 949.65 353.978C948.12 347.874 946.442 341.817 944.623 335.8C942.797 329.782 940.822 323.811 938.707 317.887C936.584 311.97 934.321 306.101 931.917 300.294C929.505 294.479 926.96 288.734 924.275 283.044C921.582 277.362 918.757 271.75 915.791 266.2C912.825 260.651 909.726 255.179 906.495 249.786C903.264 244.393 899.9 239.085 896.403 233.855C892.906 228.626 889.292 223.482 885.546 218.432C881.799 213.382 877.928 208.426 873.939 203.563C869.951 198.701 865.845 193.94 861.615 189.28C857.392 184.62 853.06 180.07 848.611 175.621C844.162 171.172 839.612 166.84 834.952 162.617C830.292 158.387 825.531 154.281 820.669 150.293C815.806 146.304 810.85 142.433 805.8 138.686C800.75 134.94 795.606 131.326 790.376 127.829C785.147 124.332 779.839 120.968 774.446 117.737C769.053 114.506 763.581 111.407 758.032 108.441C752.482 105.475 746.87 102.65 741.188 99.9567C735.498 97.2717 729.753 94.7194 723.938 92.3154C718.131 89.9114 712.262 87.6479 706.345 85.5249C700.421 83.4096 694.45 81.4349 688.432 79.6085C682.415 77.7821 676.358 76.1117 670.254 74.5819C664.15 73.0521 658.023 71.6784 651.849 70.4452C645.683 69.2197 639.486 68.1426 633.265 67.2216C627.044 66.3006 620.808 65.5279 614.548 64.9112C608.288 64.2946 602.021 63.8341 595.737 63.5297C589.454 63.2175 583.171 63.0614 576.88 63.0614Z" fill="#1E55EC"/>
</g>
</svg>
