<svg xmlns:xlink="http://www.w3.org/1999/xlink" xmlns="http://www.w3.org/2000/svg" width="375.3236826377968" height="73.50090023565365" viewBox="0 0 375.3236826377968 73.50090023565365" class="css-1j8o68f"><defs id="SvgjsDefs1480"></defs><g id="SvgjsG1481" featurekey="nRdZyp-0" transform="matrix(0.8770990162167049,0,0,0.8770990162167049,-7.016793802667249,-7.104502365942032)" fill="#1E55EB"><title xmlns="http://www.w3.org/2000/svg">14</title><g xmlns="http://www.w3.org/2000/svg" data-name="Group" fill="#1E55EB"><path data-name="Compound Path" d="M76.8,53H46.9V23.1a3,3,0,0,0-3-3A35.9,35.9,0,1,0,79.8,56,3,3,0,0,0,76.8,53ZM40.9,55.6,33.8,84.1a29.9,29.9,0,0,1,7.1-57.9Z" fill="#1E55EB"></path><path data-name="Path" d="M56.1,8.1a3,3,0,0,0-3,3V44a3,3,0,0,0,3,3H89a3,3,0,0,0,3-3A35.9,35.9,0,0,0,56.1,8.1Z" fill="#1E55EB"></path></g></g><g id="SvgjsG1482" featurekey="Q4qmbg-0" transform="matrix(4.228607950938989,0,0,4.228607950938989,94.09481743850253,-17.61050101671098)" fill="#1E55EB"><path d="M16.98 20 l-2.98 0 l0 -5.64 c0 -1.52 -0.42 -2.16 -1.54 -2.16 c-1.2 0 -1.9 0.64 -1.9 2.16 l0 5.64 l-2.98 0 l0 -5.64 c0 -1.52 -0.4 -2.16 -1.54 -2.16 c-1.2 0 -1.92 0.64 -1.92 2.16 l0 5.64 l-2.96 0 l0 -9.88 l2.96 0 l0 0.9 c0.7 -0.7 1.76 -1.04 2.7 -1.04 c1.4 0 2.3 0.52 2.94 1.34 c0.54 -0.66 1.7 -1.26 3.44 -1.34 c2.78 0 3.78 1.32 3.78 4.38 l0 5.64 z M28.627708333333334 15.08 l0 0.66 l-7.04 0 c0 1.16 1.18 1.98 2.16 1.98 c0.96 0 1.84 -0.38 2.3 -1.22 l1.98 1.82 c-0.8 1.08 -2.02 1.84 -4.28 1.84 c-3.24 0 -5.22 -2.16 -5.22 -5.08 s1.92 -5.1 5.04 -5.1 s5.06 2.14 5.06 5.1 z M21.647708333333334 13.86 l3.88 0 c-0.16 -0.94 -0.84 -1.44 -1.96 -1.44 c-1.08 0 -1.74 0.58 -1.92 1.44 z M33.29541666666667 15.8 c0 0.72 -0.02 1.92 1.08 1.92 c0.54 0 0.88 -0.22 1.26 -0.5 l0 2.44 c-0.46 0.26 -1.02 0.5 -1.62 0.5 c-2.54 0 -3.68 -1.08 -3.68 -4.36 l0 -3.24 l-1.1 0 l0 -2.44 l1.1 0 l0 -2.84 l2.96 0 l0 2.84 l2.34 0 l0 2.44 l-2.34 0 l0 3.24 z M43.983124999999994 10.26 l-0.4 2.22 c-0.74 -0.32 -0.88 -0.26 -1.22 -0.26 c-1.2 0 -1.9 0.64 -1.9 2.22 l0 5.56 l-2.96 0 l0 -9.88 l2.96 0 l0 0.88 c0.38 -0.68 1.42 -1.02 2.08 -1.02 c0.62 0 0.98 0.02 1.44 0.28 z M47.290833333333325 10.12 l0 9.88 l-2.96 0 l0 -9.88 l2.96 0 z M47.37083333333332 7.279999999999999 c0 0.84 -0.68 1.5 -1.58 1.5 c-0.86 0 -1.56 -0.66 -1.56 -1.5 c0 -0.82 0.7 -1.46 1.56 -1.46 c0.9 0 1.58 0.64 1.58 1.46 z M52.438541666666666 15.8 c0 0.72 -0.02 1.92 1.08 1.92 c0.54 0 0.88 -0.22 1.26 -0.5 l0 2.44 c-0.46 0.26 -1.02 0.5 -1.62 0.5 c-2.54 0 -3.68 -1.08 -3.68 -4.36 l0 -3.24 l-1.1 0 l0 -2.44 l1.1 0 l0 -2.84 l2.96 0 l0 2.84 l2.34 0 l0 2.44 l-2.34 0 l0 3.24 z M61.286249999999995 12.42 c-1.22 0 -2.24 1.08 -2.24 2.66 c0 1.56 1.02 2.64 2.24 2.64 c1.24 0 2.26 -1.08 2.26 -2.64 c0 -1.58 -1.02 -2.66 -2.26 -2.66 z M61.286249999999995 9.98 c2.9 0 5.22 2.18 5.22 5.1 s-2.32 5.08 -5.22 5.08 c-2.88 0 -5.2 -2.16 -5.2 -5.08 s2.32 -5.1 5.2 -5.1 z" fill="#1E55EB"></path></g></svg>